<?xml version="1.0" encoding="UTF-8"?>
<svg width="20px" height="18px" viewBox="0 0 20 18" version="1.1" xmlns="http://www.w3.org/2000/svg" xmlns:xlink="http://www.w3.org/1999/xlink">
    <!-- Generator: Sketch 61.2 (89653) - https://sketch.com -->
    <title>comment-dots</title>
    <desc>Created with Sketch.</desc>
    <defs>
        <path d="M11.9999999,3.24999996 C6.47656247,3.24999996 1.99999995,6.88671872 1.99999995,11.375 C1.99999995,13.3125 2.83593745,15.0859375 4.22656246,16.4804688 C3.73828121,18.4492188 2.1054687,20.203125 2.08593745,20.2226563 C1.99999995,20.3125 1.97656245,20.4453125 2.0273437,20.5625 C2.07812495,20.6796875 2.18749995,20.75 2.31249995,20.75 C4.90234371,20.75 6.84374997,19.5078125 7.80468748,18.7421875 C9.08203124,19.2226563 10.4999999,19.5 11.9999999,19.5 C17.5234375,19.5 21.9999999,15.8632813 21.9999999,11.375 C21.9999999,6.88671872 17.5234375,3.24999996 11.9999999,3.24999996 Z M6.99999997,12.625 C6.30859372,12.625 5.74999997,12.0664063 5.74999997,11.375 C5.74999997,10.6835937 6.30859372,10.125 6.99999997,10.125 C7.69140623,10.125 8.24999997,10.6835937 8.24999997,11.375 C8.24999997,12.0664063 7.69140623,12.625 6.99999997,12.625 Z M12,12.625 C11.3085937,12.625 10.75,12.0664063 10.75,11.375 C10.75,10.6835937 11.3085937,10.125 12,10.125 C12.6914063,10.125 13.25,10.6835937 13.25,11.375 C13.25,12.0664063 12.6914063,12.625 12,12.625 Z M17,12.625 C16.3085938,12.625 15.75,12.0664063 15.75,11.375 C15.75,10.6835937 16.3085938,10.125 17,10.125 C17.6914063,10.125 18.25,10.6835937 18.25,11.375 C18.25,12.0664063 17.6914063,12.625 17,12.625 Z" id="path-1"></path>
    </defs>
    <g id="Brisk---MVP---Prototype" stroke="none" stroke-width="1" fill="none" fill-rule="evenodd">
        <g id="Connections-UI---Empty-State---Default" transform="translate(-650.000000, -598.000000)">
            <g id="comment-dots" transform="translate(648.000000, 595.000000)">
                <mask id="mask-2" fill="white">
                    <use xlink:href="#path-1"></use>
                </mask>
                <g fill-rule="nonzero"></g>
                <g id="brand/primary" mask="url(#mask-2)" fill="#111112" fill-opacity="0.99" fill-rule="evenodd">
                    <rect id="Rectangle" x="0" y="0" width="24" height="24" rx="10"></rect>
                </g>
            </g>
        </g>
    </g>
</svg>