<?xml version="1.0" encoding="UTF-8"?>
<svg width="288px" height="77px" viewBox="0 0 288 77" version="1.1" xmlns="http://www.w3.org/2000/svg" xmlns:xlink="http://www.w3.org/1999/xlink">
    <!-- Generator: Sketch 63.1 (92452) - https://sketch.com -->
    <title>getseen logo concept 01</title>
    <desc>Created with Sketch.</desc>
    <g id="Page-1" stroke="none" stroke-width="1" fill="none" fill-rule="evenodd">
        <g id="Desktop-HD" transform="translate(-779.000000, -621.000000)" fill="#111111">
            <g id="getseen-logo-concept-01" transform="translate(779.000000, 621.000000)">
                <g id="Layer_x0020_2" transform="translate(0.953323, 9.495363)">
                    <path d="M20.3719629,0 C7.69206857,0 1.32207429,7.57188 1.32207429,15.6846086 C1.32207429,21.6339429 4.74744857,26.3212971 9.61508571,28.2443143 C10.1559343,29.1457286 9.73527429,29.7466714 8.83386,30.4077086 C8.29301143,31.0086514 5.34839143,33.23214 2.64414857,34.9748743 C2.1033,35.5157229 1.92301714,36.2969486 1.92301714,37.0781743 C1.92301714,40.4434543 4.38688286,43.6885457 7.99254,44.8303371 C8.77376571,45.0707143 9.07423714,45.5514686 7.87235143,46.2125057 C6.79065429,46.8134486 5.04792,48.0754286 3.12490286,49.2773143 C1.44226286,50.2388229 0,51.8012743 0,54.1449514 C0,60.15438 5.04792,66.6445629 19.1099829,66.6445629 C24.7588457,66.6445629 31.12884,65.3224886 36.17676,62.3177743 C41.2847743,59.1928714 44.9505257,53.7242914 44.9505257,47.5946743 C44.9505257,37.7392114 37.1382686,35.7561 29.86686,35.7561 C25.2396,35.7561 21.2733771,35.9964771 17.9080971,35.9964771 C15.0235714,35.9964771 12.9803657,34.6143086 12.9803657,32.4509143 C12.9803657,31.3091229 13.6414029,30.5278971 14.6029114,30.1072371 C15.6846086,30.2274257 17.0667771,30.4077086 18.6292286,30.4077086 C34.0133657,30.4077086 38.6406257,21.033 38.6406257,13.3409314 C38.6406257,11.6582914 38.5204371,10.8169714 38.3401543,9.91555714 L45.5514686,9.91555714 C46.5129771,9.31461429 46.9937314,7.57188 46.9937314,6.00942857 C46.9937314,4.92773143 46.8134486,4.14650571 46.1524114,3.60565714 C35.0349686,2.94462 28.9654457,0 20.3719629,0 Z M35.8762886,15.0235714 C32.2105371,20.0714914 26.2612029,23.3165829 19.5306429,23.3165829 C12.8601771,23.3165829 6.91084286,20.0714914 3.18499714,15.0235714 C6.91084286,9.97565143 12.8601771,6.73056 19.5306429,6.73056 C26.2612029,6.73056 32.2105371,9.97565143 35.8762886,15.0235714 Z M25.1795057,45.85194 C30.5278971,45.85194 34.7344971,48.0754286 34.7344971,53.7242914 C34.7344971,58.4116457 30.6480857,61.4764543 24.4583743,61.4764543 C16.7663057,61.4764543 11.77848,57.1496657 11.77848,50.5392943 C11.77848,49.2773143 12.19914,47.95524 13.1606486,47.11392 C14.0019686,46.3927886 15.98508,45.85194 18.6292286,45.85194 L25.1795057,45.85194 Z" id="Shape"></path>
                </g>
                <g id="Layer_x0020_3" transform="translate(48.968657, 0.841786)">
                    <path d="M33.1720457,25.9006371 C36.17676,25.9006371 36.6575143,24.5184686 36.6575143,22.6555457 C36.6575143,15.14376 31.1889343,8.65357714 21.033,8.65357714 C8.83386,8.65357714 0,18.2085686 0,30.4678029 C0,41.1044914 7.09112571,50.4191057 20.2517743,50.4191057 C26.1410143,50.4191057 33.3523286,47.53458 37.3185514,39.2415686 C37.3185514,37.6190229 35.8762886,36.8377971 34.7945914,37.01808 C32.1504429,41.5251514 28.4846914,42.1260943 25.7203543,42.1260943 C16.6461171,42.1260943 11.9587629,34.9748743 11.9587629,27.6433714 C11.9587629,26.08092 12.19914,25.9006371 14.4226286,25.9006371 L33.1720457,25.9006371 Z M17.24706,21.6339429 C14.1221571,21.6339429 12.7399886,21.5137543 12.7399886,20.1315857 C12.7399886,17.0066829 16.2855514,13.1005543 20.3719629,13.1005543 C23.6771486,13.1005543 25.5400714,15.2639486 25.5400714,18.50904 C25.5400714,19.4705486 25.3597886,20.4320571 24.8790343,20.7325286 C23.7973371,21.3935657 22.2348857,21.6339429 20.8527171,21.6339429 L17.24706,21.6339429 Z M68.2070143,15.2639486 C69.1685229,14.6630057 69.4689943,12.9202714 69.4689943,11.8385743 C69.4689943,10.9972543 69.1685229,10.3963114 68.6877686,9.97565143 L59.9740971,9.97565143 C58.2313629,9.97565143 58.1111743,9.91555714 58.1111743,8.05263429 L58.1111743,0.721131429 C57.63042,-0.0600942857 55.8876857,-0.180282857 55.2266486,0.240377143 C52.16184,4.50707143 49.7580686,6.55027714 47.95524,7.87235143 C45.6115629,9.43480286 42.90732,11.1775371 39.9026057,12.2592343 C39.12138,12.9202714 39.4218514,14.8432886 40.4434543,15.2639486 L43.5082629,15.2639486 C45.2509971,15.2639486 45.3711857,15.4442314 45.3711857,17.4874371 L45.3711857,39.2415686 C45.3711857,45.7317514 48.1956171,50.4191057 56.2482514,50.4191057 C62.3177743,50.4191057 67.6060714,47.6547686 70.3103143,44.7101486 C70.5506914,43.5683571 69.9497486,42.48666 68.98824,42.1861886 C67.7863543,42.9674143 66.2239029,43.6284514 64.8417343,43.6284514 C58.05108,43.6284514 58.05108,37.6190229 58.05108,32.1504429 L58.05108,17.4874371 C58.05108,15.3841371 58.1111743,15.2639486 59.3731543,15.2639486 L68.2070143,15.2639486 Z M85.3338857,50.4191057 C94.5283114,50.4191057 101.919909,45.9721286 102.040097,37.3185514 C102.040097,30.9485571 97.9536857,26.8621457 91.28322,23.6771486 C86.8963371,21.5137543 85.0334143,19.6508314 85.0334143,17.4273429 C85.0334143,14.7831943 87.1367143,13.1005543 89.9611457,13.1005543 C93.1461429,13.1005543 95.6100086,15.14376 97.5330257,20.8527171 C98.1339686,21.5137543 100.597834,21.5137543 100.9584,20.4320571 C100.9584,16.7062114 100.477646,12.8000829 99.5161371,10.6967829 C98.43444,9.91555714 94.0475571,8.65357714 89.0597314,8.65357714 C80.6465314,8.65357714 73.5554057,12.7399886 73.5554057,21.2132829 C73.5554057,27.0424286 77.7620057,30.5879914 83.5911514,33.5326114 C86.8963371,35.1551571 90.02124,37.1983629 90.02124,40.80402 C90.02124,44.1693 87.91794,45.9120343 84.97332,45.9120343 C79.9854943,45.9120343 76.2596486,40.1429829 74.9976686,36.1166657 C74.3967257,35.2753457 72.2934257,35.33544 71.6924829,36.3570429 C71.5122,40.7439257 72.1732371,45.43128 73.2549343,47.3542971 C75.8990829,49.3975029 79.8052114,50.4191057 85.3338857,50.4191057 Z M140.560534,25.9006371 C143.625343,25.9006371 144.106097,24.5184686 144.106097,22.6555457 C144.106097,15.14376 138.637517,8.65357714 128.481583,8.65357714 C116.282443,8.65357714 107.388489,18.2085686 107.388489,30.4678029 C107.388489,41.1044914 114.539709,50.4191057 127.700357,50.4191057 C133.529503,50.4191057 140.800911,47.53458 144.767134,39.2415686 C144.767134,37.6190229 143.324871,36.8377971 142.243174,37.01808 C139.599026,41.5251514 135.87318,42.1260943 133.168937,42.1260943 C124.0947,42.1260943 119.407346,34.9748743 119.407346,27.6433714 C119.407346,26.08092 119.587629,25.9006371 121.871211,25.9006371 L140.560534,25.9006371 Z M124.695643,21.6339429 C121.57074,21.6339429 120.188571,21.5137543 120.188571,20.1315857 C120.188571,17.0066829 123.67404,13.1005543 127.820546,13.1005543 C131.125731,13.1005543 132.988654,15.2639486 132.988654,18.50904 C132.988654,19.4705486 132.748277,20.4320571 132.267523,20.7325286 C131.185826,21.3935657 129.683469,21.6339429 128.3013,21.6339429 L124.695643,21.6339429 Z M181.544837,25.9006371 C184.609646,25.9006371 185.0904,24.5184686 185.0904,22.6555457 C185.0904,15.14376 179.62182,8.65357714 169.465886,8.65357714 C157.266746,8.65357714 148.372791,18.2085686 148.372791,30.4678029 C148.372791,41.1044914 155.524011,50.4191057 168.68466,50.4191057 C174.513806,50.4191057 181.785214,47.53458 185.751437,39.2415686 C185.751437,37.6190229 184.309174,36.8377971 183.227477,37.01808 C180.583329,41.5251514 176.857483,42.1260943 174.15324,42.1260943 C165.079003,42.1260943 160.391649,34.9748743 160.391649,27.6433714 C160.391649,26.08092 160.571931,25.9006371 162.855514,25.9006371 L181.544837,25.9006371 Z M165.679946,21.6339429 C162.555043,21.6339429 161.172874,21.5137543 161.172874,20.1315857 C161.172874,17.0066829 164.658343,13.1005543 168.804849,13.1005543 C172.110034,13.1005543 173.972957,15.2639486 173.972957,18.50904 C173.972957,19.4705486 173.73258,20.4320571 173.251826,20.7325286 C172.170129,21.3935657 170.607677,21.6339429 169.285603,21.6339429 L165.679946,21.6339429 Z M194.465109,37.6791171 C194.465109,44.5298657 194.044449,45.3110914 190.55898,45.7317514 L188.996529,45.9120343 C188.215303,46.5129771 188.215303,48.7364657 189.056623,49.3374086 C192.481997,49.0970314 196.508314,49.0369371 200.594726,49.0369371 C205.28208,49.0369371 208.406983,49.0970314 211.411697,49.3374086 C212.313111,48.7364657 212.313111,46.5129771 211.531886,45.9120343 L209.969434,45.7317514 C207.505569,45.43128 207.145003,44.5298657 207.145003,39.1814743 L207.145003,21.6940371 C207.145003,19.9513029 207.325286,18.7494171 207.926229,18.08838 C208.707454,17.0066829 210.630471,15.7447029 213.394809,15.7447029 C218.262446,15.7447029 220.185463,18.8696057 220.185463,22.6555457 L220.185463,39.1814743 C220.185463,44.5298657 219.824897,45.1909029 217.541314,45.6115629 L215.79858,45.9120343 C215.017354,46.5129771 215.017354,48.7364657 215.918769,49.3374086 C218.7432,49.0970314 222.52914,49.0369371 226.435269,49.0369371 C231.122623,49.0369371 235.209034,49.0970314 238.273843,49.3374086 C239.115163,48.7364657 239.115163,46.5129771 238.333937,45.9120343 L236.771486,45.7317514 C233.286017,45.3110914 232.865357,44.5298657 232.865357,37.6791171 L232.865357,20.9128114 C232.865357,14.1822514 228.778946,8.65357714 220.666217,8.65357714 C216.21924,8.65357714 211.59198,11.2376314 209.48868,12.5597057 C208.887737,12.8000829 207.926229,13.3409314 207.625757,13.3409314 C207.325286,13.3409314 207.145003,13.1005543 207.145003,12.5597057 C207.145003,11.8385743 207.445474,9.49489714 207.445474,8.11272857 C207.024814,7.57188 206.423871,7.27140857 205.642646,7.27140857 C202.818214,9.01414286 195.787183,11.6582914 191.220017,12.9202714 C190.55898,13.5212143 190.55898,15.2639486 191.220017,15.8648914 L192.602186,16.7062114 C194.465109,17.9080971 194.465109,19.0498886 194.465109,22.9560171 L194.465109,37.6791171 Z" id="Shape"></path>
                </g>
                <g id="Layer_x0020_4" transform="translate(12.190954, 15.805263)">
                    <path d="M8.71367143,0 C10.09584,0 11.4179143,0.300471429 12.5597057,0.84132 C12.3193286,0.84132 12.0789514,0.781225714 11.8986686,0.781225714 C10.09584,0.781225714 8.59348286,2.28358286 8.59348286,4.08641143 C8.59348286,5.88924 10.09584,7.33150286 11.8986686,7.33150286 C13.7014971,7.33150286 15.14376,5.88924 15.14376,4.08641143 C15.14376,3.42537429 14.9634771,2.76433714 14.6029114,2.28358286 C16.3456457,3.84603429 17.4874371,6.18971143 17.4874371,8.71367143 C17.4874371,13.5212143 13.5813086,17.4273429 8.71367143,17.4273429 C3.90612857,17.4273429 0,13.5212143 0,8.71367143 C0,3.90612857 3.90612857,0 8.71367143,0 Z" id="Path"></path>
                </g>
            </g>
        </g>
    </g>
</svg>