<?xml version="1.0" encoding="UTF-8"?>
<svg width="20px" height="31px" viewBox="0 0 20 31" version="1.1" xmlns="http://www.w3.org/2000/svg" xmlns:xlink="http://www.w3.org/1999/xlink">
    <!-- Generator: Sketch 61.2 (89653) - https://sketch.com -->
    <title>logo/getseen/logo_dark copy 2</title>
    <desc>Created with Sketch.</desc>
    <g id="WebApp_getseen" stroke="none" stroke-width="1" fill="none" fill-rule="evenodd">
        <g id="Plus-UI---Empty-State---Select-a-Goal" transform="translate(-28.000000, -76.000000)" fill-rule="nonzero">
            <g id="logo/getseen/logo_dark-copy-2" transform="translate(18.000000, 71.500000)">
                <g id="Group">
                    <g id="logo_tile-copy">
                        <g id="brisk_tile">
                            <rect id="Rectangle" x="0" y="0" width="40" height="40" rx="8"></rect>
                        </g>
                    </g>
                    <path d="M19.133627,5.25 C16.7511013,5.25 14.8450808,5.94309838 13.5455213,6.93942731 C11.8127753,8.19566814 10.9464023,9.8417768 10.9464023,11.7477974 C10.9464023,14.8234214 13.2856094,16.6428047 14.5851689,17.2059471 C14.7584435,17.2925844 14.6718062,17.595815 14.6284875,17.6391336 C13.8920705,18.5055066 11.2063142,20.0216593 10.9464023,20.2382526 C10.8164464,20.2815712 10.6431718,20.6714391 10.6431718,20.801395 C10.6431718,22.404185 11.3362702,23.6171072 12.3759178,24.3102056 C12.9077745,24.6784141 13.7101054,25.0079834 14.1260447,25.1164509 L14.195301,25.1332599 C14.4118943,25.1765786 14.325257,25.3498532 14.1519824,25.4364905 L13.8816232,25.5981421 C13.2338776,25.9774366 12.1455413,26.5726205 11.5095448,26.9093245 C10.8164464,27.342511 10.123348,28.0356094 10.123348,29.3784875 C10.123348,30.8513216 11.0330396,32.3674743 12.5491924,33.3638032 L12.794843,33.5049602 C14.1888835,34.28633 15.6344428,34.75 18.0073421,34.75 C20.3898678,34.75 22.6424376,34.1435389 24.80837,32.8439794 L24.9664947,32.7463922 C26.6383714,31.6948507 29.4434655,29.3080947 29.4434655,25.7830396 C29.4434655,24.2235683 28.7070485,22.7940529 27.5807636,21.7544053 C26.7577093,21.1046256 25.7613803,20.801395 25.2415565,20.7147577 L25.0985038,20.6958592 C23.7014031,20.5289959 18.8492992,20.3650581 17.0543319,20.2815712 C16.4911894,20.2382526 15.4948605,19.5018355 15.4948605,18.8087372 C15.4948605,18.462188 15.798091,18.0723201 16.0580029,17.8557269 C16.1879589,17.7257709 16.3179148,17.7257709 16.664464,17.7690896 C17.1193098,17.8517888 18.166207,17.895018 18.4864957,17.898777 L18.5271659,17.8990455 C19.4801762,17.8990455 22.0359765,17.6391336 23.9853157,16.2096182 C25.674743,14.9100587 26.4977974,13.1339941 26.4977974,10.8381057 C26.4977974,10.1016887 26.3678414,9.5818649 26.2812041,9.14867841 C26.2378855,9.10535977 26.2812041,8.84544787 26.4977974,8.84544787 L26.7285308,8.86263184 C27.6874261,8.92590528 28.599554,8.88876652 28.8803231,8.88876652 C29.0535977,8.88876652 29.876652,7.76248164 29.876652,7.11270191 C29.876652,6.89610866 29.7033774,6.63619677 29.4434655,6.59287812 L29.3277397,6.57895117 C28.4828744,6.48512298 25.5816079,6.28964758 24.6350954,6.28964758 C24.3571341,6.28964758 24.0063734,6.14404878 23.5828133,6.01968315 L23.0243487,5.86053651 C21.93319,5.55191366 20.7346843,5.25 19.133627,5.25 Z M18.6571219,6.54955947 C19.3935389,6.54955947 20.0866373,7.15602056 20.6497797,8.02239354 C21.2562408,8.93208517 21.60279,11.054699 21.60279,11.6611601 C21.60279,13.5671806 21.1696035,15.3432452 20.6497797,15.9497063 C20.2599119,16.3395742 19.6967695,16.599486 19.3935389,16.599486 C17.660793,16.599486 16.2745962,14.0003671 16.2745962,10.9680617 C16.2745962,9.59572687 16.5540535,8.38308194 17.1512936,7.48342915 L17.2276065,7.3726138 C17.5741557,6.85279001 18.0939794,6.54955947 18.6571219,6.54955947 Z M20.1299559,32.5840675 C18.7437592,32.5840675 17.0976505,32.2375184 15.928047,31.3278267 C15.0183554,30.6347283 14.4552129,29.5950808 14.4552129,28.3821586 C14.4552129,27.472467 14.8017621,26.6927313 15.4515419,25.9996329 C15.798091,25.6530837 16.664464,25.4364905 17.3575624,25.4364905 L18.6210808,25.4378767 C20.0502496,25.4434214 20.5977974,25.4711454 21.9493392,25.6097651 C23.1590526,25.7766221 23.7662267,26.0238177 24.3897662,26.6221225 L24.4618209,26.6927313 C24.9816446,27.1692364 25.2415565,28.0356094 25.2415565,28.6853891 C25.2415565,29.811674 24.80837,31.1112335 23.4654919,31.8476505 C22.2525698,32.4974302 21.0396476,32.5840675 20.1299559,32.5840675 Z" id="getseen-copy-2" fill-opacity="0.99" fill="#161617"></path>
                </g>
            </g>
        </g>
    </g>
</svg>