<?xml version="1.0" encoding="UTF-8"?>
<svg width="21px" height="31px" viewBox="0 0 21 31" version="1.1" xmlns="http://www.w3.org/2000/svg" xmlns:xlink="http://www.w3.org/1999/xlink">
    <!-- Generator: Sketch 61.2 (89653) - https://sketch.com -->
    <title>Shape</title>
    <desc>Created with Sketch.</desc>
    <g id="-" stroke="none" stroke-width="1" fill="none" fill-rule="evenodd">
        <g id="logo/subtle_logo" transform="translate(-10.000000, -4.000000)" fill="#CED0D4">
            <g id="logo_tile">
                <g id="brisk_tile">
                    <path d="M19.83872,29.79464 C18.64408,29.79464 17.918,29.5604 17.02784,28.95144 C17.12152,28.45952 17.19184,27.63968 17.26208,27.14776 C17.47288,25.36752 17.754,23.58736 18.40984,21.99448 C18.972,20.6828 20.82256,17.70792 22.46216,17.70792 C24.38296,17.70792 24.68744,19.86296 24.68744,21.45576 C24.68744,24.59456 22.97752,29.79464 19.83872,29.79464 Z M11.8512,34.05784 C12.95208,33.94072 13.95936,33.56592 14.87288,32.93344 C15.27104,32.6524 15.50528,32.32448 15.8332,32.09024 C16.09088,33.02712 18.5504,34.47944 20.42432,34.47944 C25.74152,34.47944 28.69296,30.26312 30.1452,25.97656 C31.01192,23.39992 31.19928,20.47192 30.63712,17.8016 C30.44976,16.91152 30.07496,15.95112 29.65336,15.29528 C27.68576,12.29704 24.0316,12.29704 21.2676,13.96008 C20.7288,14.28808 20.35408,14.63944 19.86216,15.0376 C19.65136,15.17816 19.41712,15.4124 19.25312,15.6232 C19.01888,15.90432 18.972,16.0448 18.64408,16.27904 L18.99544,13.21056 C19.11256,12.22672 19.27656,11.1024 19.39368,10.11856 C19.5108,9.06448 19.62792,8.08072 19.76848,7.003216 L19.97928,5.176152 C20.02608,4.87164 20.37744,3.747296 18.83152,4.051808 C15.27104,4.801368 13.49088,8.29152 12.99896,11.73488 C12.36648,16.0448 11.96832,20.75304 11.35928,25.15672 L10.44576,32.51184 C10.28176,33.91728 10.516,34.19832 11.8512,34.05784 Z" id="Shape"></path>
                </g>
            </g>
        </g>
    </g>
</svg>