<?xml version="1.0" encoding="UTF-8"?>
<svg width="40px" height="40px" viewBox="0 0 40 40" version="1.1" xmlns="http://www.w3.org/2000/svg" xmlns:xlink="http://www.w3.org/1999/xlink">
    <!-- Generator: Sketch 61.2 (89653) - https://sketch.com -->
    <title>Group 2</title>
    <desc>Created with Sketch.</desc>
    <defs>
        <path d="M15.2660808,12.1458333 L15.7752604,8.82792968 L12.5916341,8.82792968 L12.5916341,6.67483722 C12.5916341,5.76712237 13.0363607,4.88232419 14.462207,4.88232419 L15.9095378,4.88232419 L15.9095378,2.05748693 C15.9095378,2.05748693 14.5961263,1.83333329 13.3403646,1.83333329 C10.7185547,1.83333329 9.0048177,3.4224609 9.0048177,6.29921873 L9.0048177,8.82792968 L6.09046222,8.82792968 L6.09046222,12.1458333 L9.0048177,12.1458333 L9.0048177,20.1666667 L12.5916341,20.1666667 L12.5916341,12.1458333 L15.2660808,12.1458333 Z" id="path-1"></path>
    </defs>
    <g id="-" stroke="none" stroke-width="1" fill="none" fill-rule="evenodd">
        <g id="channel/connect/facebook">
            <g id="Group-2">
                <g id="channel/connect/facebook_messenger" fill="#3E5DA2">
                    <g id="Facebook-Channel-Indicator">
                        <rect id="Button-Background" x="0" y="0" width="40" height="40" rx="10"></rect>
                    </g>
                </g>
                <g id="facebook-f" transform="translate(9.094725, 9.150280)">
                    <mask id="mask-2" fill="white">
                        <use xlink:href="#path-1"></use>
                    </mask>
                    <g fill-rule="nonzero"></g>
                    <g id="brand/white" mask="url(#mask-2)" fill="#FFFFFF" fill-rule="evenodd">
                        <rect id="Rectangle-Copy-10" x="0" y="0" width="22" height="22" rx="10"></rect>
                    </g>
                </g>
            </g>
        </g>
    </g>
</svg>