<?xml version="1.0" encoding="UTF-8"?>
<svg width="40px" height="40px" viewBox="0 0 40 40" version="1.1" xmlns="http://www.w3.org/2000/svg" xmlns:xlink="http://www.w3.org/1999/xlink">
    <!-- Generator: Sketch 61.2 (89653) - https://sketch.com -->
    <title>Group 2</title>
    <desc>Created with Sketch.</desc>
    <defs>
        <linearGradient x1="0%" y1="49.999%" x2="99.999%" y2="49.999%" id="linearGradient-1">
            <stop stop-color="#4079D8" offset="3%"></stop>
            <stop stop-color="#4989F5" offset="100%"></stop>
        </linearGradient>
    </defs>
    <g id="-" stroke="none" stroke-width="1" fill="none" fill-rule="evenodd">
        <g id="channel/connect/google_my_business">
            <g id="Group-2">
                <g id="Facebook-Channel-Indicator" fill="#E7E9ED">
                    <rect id="Button-Background" x="0" y="0" width="40" height="40" rx="10"></rect>
                </g>
                <g id="google-my-business-logo" transform="translate(8.351738, 9.476585)" fill-rule="nonzero">
                    <g id="Group">
                        <rect id="Rectangle" fill="#4989F5" x="1.18944751" y="5.17514036" width="20.7179725" height="15.4915246" rx="0.779887218"></rect>
                        <path d="M20.8472652,5.05875476 L2.22668135,5.05875476 C1.64987163,5.05875476 1.20101931,9.52279911 1.20101931,10.0996088 L11.3982229,20.666665 L20.8472652,20.666665 C21.4258552,20.665085 21.8944908,20.1964493 21.8960708,19.6178593 L21.8960708,6.10733786 C21.8943573,5.52883687 21.4257661,5.06033475 20.8472652,5.05875476 Z" id="Path" fill="url(#linearGradient-1)"></path>
                        <polygon id="Path" fill="#3C4BA6" points="5.92008833 7.76944889 11.8395091 7.76944889 11.8395091 0.000320449844 6.8064437 0.000320449844"></polygon>
                        <path d="M17.7589298,7.76944889 L11.8395091,7.76944889 L11.8395091,0.000320449844 L16.8725744,0.000320449844 L17.7589298,7.76944889 Z M21.970472,1.47305452 L22.0399266,1.68352282 C22.0230891,1.60923989 21.9894142,1.54026289 21.970472,1.47305452 Z" id="Shape" fill="#7BABF7"></path>
                        <path d="M21.9147637,1.49931361 L21.9074201,1.47283199 C21.7197566,0.613470071 20.9591333,0.000654251765 20.0795207,9.79152301e-05 L16.8725744,9.79152301e-05 L17.7582622,7.76944889 L23.6776829,7.76944889 L21.9147637,1.49931361 Z" id="Path" fill="#3F51B5"></path>
                        <path d="M1.89676092,1.47305452 L1.82730639,1.68352282 C1.84414385,1.60923989 1.87781878,1.54026289 1.89676092,1.47305452 Z" id="Path" fill="#7BABF7"></path>
                        <path d="M1.76403188,1.49931361 L1.77137553,1.47283199 C1.95903897,0.613470071 2.71966228,0.000654251765 3.59927484,9.79152301e-05 L6.8064437,9.79152301e-05 L5.91942073,7.76944889 L0,7.76944889 L1.76403188,1.49931361 Z" id="Path" fill="#7BABF7"></path>
                    </g>
                    <path d="M5.93010239,7.76744608 C5.93010239,9.40111718 4.60573214,10.7254874 2.97206103,10.7254874 C1.33838993,10.7254874 0.0140196807,9.40111718 0.0140196807,7.76744608 L5.93010239,7.76744608 Z" id="Path" fill="#709BE0"></path>
                    <path d="M11.8461851,7.76744608 C11.8461851,9.40111718 10.5218148,10.7254874 8.88814374,10.7254874 C7.25447264,10.7254874 5.93010239,9.40111718 5.93010239,7.76744608 L11.8461851,7.76744608 Z" id="Path" fill="#3C4BA6"></path>
                    <path d="M17.7622678,7.76744608 C17.7622678,9.40111718 16.4378976,10.7254874 14.8042265,10.7254874 C13.1705553,10.7254874 11.8461851,9.40111718 11.8461851,7.76744608 L17.7622678,7.76744608 Z" id="Path" fill="#709BE0"></path>
                    <path d="M23.6776829,7.76744608 C23.6776829,9.40111718 22.3533127,10.7254874 20.7196416,10.7254874 C19.0859704,10.7254874 17.7616002,9.40111718 17.7616002,7.76744608 L23.6776829,7.76744608 Z" id="Path" fill="#3C4BA6"></path>
                    <path d="M20.7197528,15.7815851 C20.7092937,15.6407207 20.691936,15.5120957 20.6672347,15.3478652 L17.4404828,15.3478652 C17.4404828,15.7991654 17.4404828,16.2916345 17.4387025,16.7431572 L19.3079932,16.7431572 C19.2277874,17.1681598 18.9815251,17.5436798 18.6236993,17.786622 C18.6236993,17.786622 18.6236993,17.7788333 18.6223641,17.7786107 C18.3935666,17.9288393 18.135818,18.0294371 17.8657464,18.0739142 C17.59498,18.1234477 17.3173669,18.1222404 17.0470416,18.0703536 C16.7725476,18.0135421 16.5126631,17.9009078 16.2835253,17.7394447 C15.9453075,17.4996038 15.6844394,17.1662681 15.532916,16.7803205 C15.5213442,16.7502783 15.5106626,16.7200136 15.4997584,16.6893038 L15.4997584,16.6859658 L15.5026513,16.6837404 C15.3555847,16.2521025 15.3551935,15.7839765 15.5015387,15.3520933 C15.6046181,15.0491244 15.7742642,14.7730979 15.9980134,14.5442927 C16.5229058,14.0013305 17.3071623,13.7971105 18.0301995,14.0151054 C18.307446,14.1001352 18.5607759,14.2492514 18.769682,14.4503831 L19.4003451,13.81972 C19.5116124,13.70734 19.6271079,13.5985206 19.734147,13.4823575 C19.4143661,13.1840766 19.0390151,12.9516372 18.6294852,12.7982861 C17.8841751,12.5280363 17.0688406,12.5208904 16.3189083,12.7780354 C16.292805,12.7869368 16.2668352,12.7962165 16.2410212,12.8058523 C15.4319636,13.1100073 14.7663811,13.7065064 14.3757361,14.4775323 C14.2377906,14.7504385 14.1373355,15.0407253 14.0770946,15.3405215 C13.719882,17.1157246 14.8030693,18.8631109 16.551902,19.3327925 C17.1235935,19.4858963 17.7313355,19.4821132 18.3074776,19.3512629 C18.8309459,19.2330704 19.3149675,18.981554 19.7125612,18.6211268 C20.1273657,18.2394799 20.4246719,17.7309883 20.5804462,17.1908968 C20.7106864,16.7332179 20.7578675,16.2559055 20.7197528,15.7815851 L20.7197528,15.7815851 Z" id="Path" fill="#FFFFFF"></path>
                </g>
            </g>
        </g>
    </g>
</svg>