<?xml version="1.0" encoding="UTF-8"?>
<svg width="18px" height="18px" viewBox="0 0 18 18" version="1.1" xmlns="http://www.w3.org/2000/svg" xmlns:xlink="http://www.w3.org/1999/xlink">
    <!-- Generator: Sketch 61.2 (89653) - https://sketch.com -->
    <title>inbox</title>
    <desc>Created with Sketch.</desc>
    <defs>
        <path d="M17.875,9.28124999 L12.71875,9.28124999 L12.71875,4.12499997 C12.71875,3.49228512 12.2056315,2.97916663 11.5729167,2.97916663 L10.4270833,2.97916663 C9.79436848,2.97916663 9.28124999,3.49228512 9.28124999,4.12499997 L9.28124999,9.28124999 L4.12499997,9.28124999 C3.49228512,9.28124999 2.97916663,9.79436848 2.97916663,10.4270833 L2.97916663,11.5729167 C2.97916663,12.2056315 3.49228512,12.71875 4.12499997,12.71875 L9.28124999,12.71875 L9.28124999,17.875 C9.28124999,18.5077149 9.79436848,19.0208334 10.4270833,19.0208334 L11.5729167,19.0208334 C12.2056315,19.0208334 12.71875,18.5077149 12.71875,17.875 L12.71875,12.71875 L17.875,12.71875 C18.5077149,12.71875 19.0208334,12.2056315 19.0208334,11.5729167 L19.0208334,10.4270833 C19.0208334,9.79436848 18.5077149,9.28124999 17.875,9.28124999 Z" id="path-1"></path>
    </defs>
    <g id="-" stroke="none" stroke-width="1" fill="none" fill-rule="evenodd">
        <g id="button/inbox" transform="translate(-11.000000, -11.000000)">
            <g id="Navbar-Inbox-Button">
                <g id="plus" transform="translate(9.000000, 9.000000)">
                    <mask id="mask-2" fill="white">
                        <use xlink:href="#path-1"></use>
                    </mask>
                    <g fill-rule="nonzero"></g>
                    <g id="brand/primary" mask="url(#mask-2)" fill="#111112" fill-opacity="0.99" fill-rule="evenodd">
                        <rect id="Rectangle" x="0" y="0" width="22" height="22" rx="10"></rect>
                    </g>
                </g>
            </g>
        </g>
    </g>
</svg>