<?xml version="1.0" encoding="UTF-8"?>
<svg width="18px" height="18px" viewBox="0 0 18 18" version="1.1" xmlns="http://www.w3.org/2000/svg" xmlns:xlink="http://www.w3.org/1999/xlink">
    <!-- Generator: Sketch 61.2 (89653) - https://sketch.com -->
    <title>envelope-open</title>
    <desc>Created with Sketch.</desc>
    <defs>
        <path d="M9.84049412,9.53127815 C9.41636248,9.53127815 9.07225568,9.87506485 9.07225568,10.2995166 C9.10874701,12.6122344 8.81169481,14.8417263 8.18558049,17.0712183 C8.09819336,17.3823549 8.25440184,18.0472012 8.92565018,18.0472012 C9.2611143,18.0472012 9.56936997,17.8256925 9.66475957,17.4863871 C10.097854,15.9527912 10.658348,13.4720212 10.6084125,10.2995166 C10.6087326,9.87538494 10.2649459,9.53127815 9.84049412,9.53127815 Z M9.81296557,6.91510368 C7.85203696,6.91286548 6.48361225,8.4218138 6.51082069,10.1509905 C6.53482815,11.6855468 6.39078344,13.2210633 6.08284787,14.7140067 C5.99674114,15.1294956 6.2643442,15.5363419 6.67951305,15.6218084 C7.0972427,15.707275 7.50120808,15.4406322 7.5873148,15.0251433 C7.91829753,13.4217656 8.07290551,11.7735741 8.04729757,10.126983 C8.03417349,9.29632522 8.68493547,8.44678155 9.79023852,8.45158304 C10.7924696,8.46662771 11.6196063,9.26271479 11.634651,10.2271741 C11.6592986,11.7652515 11.544703,13.3106912 11.2950256,14.8222003 C11.225564,15.24025 11.509172,15.6358928 11.9275419,15.7050343 C12.5667803,15.8116274 12.7857282,15.2216843 12.8103759,15.0721979 C13.0754181,13.4707408 13.1964157,11.8324724 13.1711278,10.2031667 C13.1429591,8.41701231 11.6365716,6.94199452 9.81296557,6.91510368 Z M6.26978589,6.28194966 C5.94008356,6.0149868 5.45769384,6.0642821 5.18913049,6.39334423 C4.36903596,7.40165718 3.92825915,8.67501239 3.94874551,9.97845693 C3.96763137,11.1813903 3.86968097,12.3878447 3.657135,13.5651701 C3.58223176,13.9828998 3.85911769,14.3823838 4.27684734,14.4579272 C4.92056713,14.569962 5.14335628,13.9838601 5.16960443,13.8382149 C5.39975586,12.5629391 5.50570874,11.2562935 5.48522238,9.95444948 C5.47017771,8.99799263 5.77971378,8.10171446 6.38150056,7.36260506 C6.64878351,7.03354293 6.59884802,6.54987282 6.26978589,6.28194966 Z M9.77391345,4.28677042 C9.28064036,4.27364635 8.78576676,4.33286473 8.30849863,4.4458598 C7.89589057,4.5438102 7.64045129,4.95737856 7.7377615,5.37062682 C7.8357119,5.78323488 8.24992045,6.03739376 8.66252851,5.94136395 C9.01623829,5.85781802 9.38179175,5.8206865 9.7508663,5.82324729 C12.1653757,5.85941852 14.1595946,7.79185829 14.196406,10.1311443 C14.2152919,11.3436807 14.1554333,12.5674205 14.0177906,13.7684332 C13.9697757,14.1900041 14.2722696,14.5712424 14.6935203,14.6192573 C15.2287264,14.6816767 15.5100938,14.2389793 15.5443444,13.9435276 C15.689794,12.6701295 15.7527715,11.3886605 15.7328829,10.1071369 C15.6829474,6.94615581 13.0097978,4.33478533 9.77391345,4.28677042 L9.77391345,4.28677042 Z M17.8426577,8.17437701 C17.7511093,7.76080865 17.3461836,7.49576639 16.9268535,7.5895555 C16.5126449,7.68110391 16.2508037,8.09083108 16.3423521,8.50535973 C16.4931189,9.19069244 16.4995209,9.7028514 16.4927988,10.4771717 C16.4892777,10.9019436 16.8305036,11.248291 17.2546352,11.2518121 L17.2610372,11.2518121 C17.682608,11.2518121 18.0257546,10.9121867 18.0292756,10.4899757 C18.0350374,9.77999534 18.0420796,9.07801747 17.8426577,8.17437701 Z M16.5584191,5.27043572 C14.9995353,3.04926634 12.4486636,1.69940739 9.73454123,1.65875477 C7.50056788,1.63186643 5.43432659,2.45548205 3.89752962,3.99291922 C2.41322894,5.4791405 1.61330067,7.45319318 1.646591,9.553365 L1.64274981,10.2406183 C1.63026593,10.6647499 1.96380945,11.0187798 2.38794109,11.0309436 C2.39530337,11.0315838 2.40330586,11.0315838 2.41098824,11.0315838 C2.8245566,11.0315838 3.1661026,10.7018815 3.17826638,10.2857523 L3.18338797,9.52903745 C3.15681972,7.84851587 3.79669832,6.26850549 4.9849071,5.07965651 C6.22561218,3.83767104 7.90869455,3.1696237 9.71213428,3.19555174 C11.9352243,3.22852198 14.0248328,4.33382503 15.3017091,6.15294962 C15.5453047,6.50057752 16.0238532,6.58348325 16.3714811,6.34052784 C16.7184688,6.09661214 16.8023348,5.61742341 16.5584191,5.27043572 Z" id="path-1"></path>
    </defs>
    <g id="Brisk---MVP---Prototype" stroke="none" stroke-width="1" fill="none" fill-rule="evenodd">
        <g id="-" transform="translate(-106.000000, -236.000000)">
            <g id="channel/connect_channel/SMS-Copy-7" transform="translate(80.000000, 210.000000)">
                <g id="channel/connect_channel/SMS">
                    <g id="connect_channel_template">
                        <g id="card/template_card">
                            <g id="channel/facebook_messenger" transform="translate(15.000000, 15.000000)">
                                <g id="fingerprint" transform="translate(10.147342, 10.147342)">
                                    <mask id="mask-2" fill="white">
                                        <use xlink:href="#path-1"></use>
                                    </mask>
                                    <g fill-rule="nonzero"></g>
                                    <g id="brand/primary" mask="url(#mask-2)" fill="#111112" fill-opacity="0.99" fill-rule="evenodd">
                                        <rect id="Rectangle" x="0" y="0" width="19.7053158" height="19.7053158" rx="9.85265789"></rect>
                                    </g>
                                </g>
                            </g>
                        </g>
                    </g>
                </g>
            </g>
        </g>
    </g>
</svg>