<?xml version="1.0" encoding="UTF-8"?>
<svg width="505px" height="353px" viewBox="0 0 505 353" version="1.1" xmlns="http://www.w3.org/2000/svg" xmlns:xlink="http://www.w3.org/1999/xlink">
    <!-- Generator: Sketch 59.1 (86144) - https://sketch.com -->
    <title>this_is_a_user</title>
    <desc>Created with Sketch.</desc>
    <g id="WebApp_getseen" stroke="none" stroke-width="1" fill="none" fill-rule="evenodd">
        <g id="Desktop-HD" transform="translate(-178.000000, -243.000000)" fill="#000000" fill-rule="nonzero">
            <g id="this_is_a_user" transform="translate(178.000000, 243.000000)">
                <path d="M75.6428571,151.285714 C103.457366,151.285714 126.071429,128.671652 126.071429,100.857143 C126.071429,73.0426339 103.457366,50.4285714 75.6428571,50.4285714 C47.8283482,50.4285714 25.2142857,73.0426339 25.2142857,100.857143 C25.2142857,128.671652 47.8283482,151.285714 75.6428571,151.285714 Z M428.642857,151.285714 C456.457366,151.285714 479.071429,128.671652 479.071429,100.857143 C479.071429,73.0426339 456.457366,50.4285714 428.642857,50.4285714 C400.828348,50.4285714 378.214286,73.0426339 378.214286,100.857143 C378.214286,128.671652 400.828348,151.285714 428.642857,151.285714 Z M453.857143,176.5 L403.428571,176.5 C389.560714,176.5 377.032366,182.09442 367.892188,191.155804 C399.646429,208.56942 422.181696,240.008482 427.066964,277.357143 L479.071429,277.357143 C493.01808,277.357143 504.285714,266.089509 504.285714,252.142857 L504.285714,226.928571 C504.285714,199.114062 481.671652,176.5 453.857143,176.5 Z M252.142857,176.5 C300.916741,176.5 340.392857,137.023884 340.392857,88.25 C340.392857,39.4761161 300.916741,0 252.142857,0 C203.368973,0 163.892857,39.4761161 163.892857,88.25 C163.892857,137.023884 203.368973,176.5 252.142857,176.5 Z M312.657143,201.714286 L306.117187,201.714286 C289.727902,209.59375 271.526339,214.321429 252.142857,214.321429 C232.759375,214.321429 214.636607,209.59375 198.168527,201.714286 L191.628571,201.714286 C141.515179,201.714286 100.857143,242.372321 100.857143,292.485714 L100.857143,315.178571 C100.857143,336.059152 117.797991,353 138.678571,353 L365.607143,353 C386.487723,353 403.428571,336.059152 403.428571,315.178571 L403.428571,292.485714 C403.428571,242.372321 362.770536,201.714286 312.657143,201.714286 Z M136.393527,191.155804 C127.253348,182.09442 114.725,176.5 100.857143,176.5 L50.4285714,176.5 C22.6140625,176.5 0,199.114062 0,226.928571 L0,252.142857 C0,266.089509 11.2676339,277.357143 25.2142857,277.357143 L77.1399554,277.357143 C82.1040179,240.008482 104.639286,208.56942 136.393527,191.155804 Z" id="Shape"></path>
            </g>
        </g>
    </g>
</svg>