<?xml version="1.0" encoding="UTF-8"?>
<svg width="40px" height="40px" viewBox="0 0 40 40" version="1.1" xmlns="http://www.w3.org/2000/svg" xmlns:xlink="http://www.w3.org/1999/xlink">
    <!-- Generator: Sketch 61.2 (89653) - https://sketch.com -->
    <title>Facebook Channel Indicator</title>
    <desc>Created with Sketch.</desc>
    <g id="-" stroke="none" stroke-width="1" fill="none" fill-rule="evenodd">
        <g id="channel/connect/typeform">
            <g id="Facebook-Channel-Indicator">
                <rect id="Button-Background" fill="#111111" x="0" y="0" width="40" height="40" rx="12"></rect>
                <g id="typeform-seeklogo.com" transform="translate(8.000000, 6.129321)" fill="#FFFFFF" fill-rule="nonzero">
                    <path d="M11.6196783,0.453926275 C14.7842718,0.19337823 17.0571034,1.03329639 19.5026212,3.47737366 C22.142921,6.11609904 23.8982759,9.53564579 24.3713475,13.1782035 C24.8976665,17.2290047 24.1737397,20.2518753 21.9440248,22.464978 C19.8119418,24.5811775 16.6977543,25.2792103 12.5376454,24.9314141 L12.5376454,24.9314141 L12.3654239,24.9163044 C8.82290724,24.5905907 6.31726834,23.42914 3.88950459,20.9703751 C1.29629485,18.3440452 -0.0701908612,15.3621383 0.00277764507,12.2323652 C0.0384674199,10.7001551 0.472503158,9.39428347 1.30956229,8.1129919 C1.8583241,7.27299881 2.41563339,6.61773248 3.58138545,5.41601588 L3.58138545,5.41601588 L3.97044261,5.01750907 L4.39930202,4.58281812 C7.16207956,1.80576118 8.98096134,0.671180582 11.6196783,0.453926275 Z M19.3145718,3.66553455 C16.9241452,1.27651598 14.7279892,0.464933066 11.6415067,0.719050058 C9.0403747,0.933209868 7.25403352,2.06957223 4.45839901,4.90110084 L4.45839901,4.90110084 L4.25615796,5.10629828 C2.89406612,6.49098128 2.25575513,7.19895203 1.69347116,8.01771061 L1.69347116,8.01771061 L1.61165323,8.13841121 L1.53227006,8.25848537 C0.721393501,9.49969911 0.303216379,10.7578574 0.268726302,12.2385628 C0.197567459,15.2907155 1.53325142,18.2054078 4.07879942,20.7834672 C6.50039849,23.2359888 8.98820045,24.3678285 12.5598041,24.6663177 L12.5598041,24.6663177 L12.7369778,24.6805392 C16.7378477,24.988218 19.7206706,24.2969572 21.7566243,22.2761708 C23.9197794,20.1291322 24.6240992,17.1881333 24.107543,13.2124721 C23.642249,9.62979976 21.9143749,6.26378738 19.3145718,3.66553455 Z M16.0038898,9.35905397 L16.0038898,10.6585658 L13.2439234,10.6585658 L13.2439234,18.1066179 L11.8691277,18.1066179 L11.8691277,10.6585658 L9.10916122,10.6585658 L9.10916122,9.35905397 L16.0038898,9.35905397 Z" id="Shape"></path>
                </g>
            </g>
        </g>
    </g>
</svg>