<?xml version="1.0" encoding="UTF-8"?>
<svg width="40px" height="40px" viewBox="0 0 40 40" version="1.1" xmlns="http://www.w3.org/2000/svg" xmlns:xlink="http://www.w3.org/1999/xlink">
    <!-- Generator: Sketch 61.2 (89653) - https://sketch.com -->
    <title>Facebook Channel Indicator</title>
    <desc>Created with Sketch.</desc>
    <g id="-" stroke="none" stroke-width="1" fill="none" fill-rule="evenodd">
        <g id="channel/connect/zapier">
            <g id="Facebook-Channel-Indicator">
                <rect id="Button-Background" stroke="#FFFFFF" stroke-width="4" fill="#000032" x="2" y="2" width="36" height="36" rx="10"></rect>
                <rect id="Button-Background-Copy" fill="#FF4A00" x="0" y="0" width="40" height="40" rx="10"></rect>
                <g id="Zapier-logo-vector-01" transform="translate(8.500000, 8.500000)" fill="#FFFFFF" fill-rule="nonzero">
                    <path d="M14.3419713,11.5062324 C14.3419713,12.3538379 14.1861615,13.1578166 13.9057038,13.9057038 C13.1578166,14.1861615 12.3476055,14.3419713 11.5062324,14.3419713 L11.4937676,14.3419713 C10.6461621,14.3419713 9.84218339,14.1861615 9.0942962,13.9057038 C8.81383851,13.1578166 8.65802868,12.3476055 8.65802868,11.5062324 L8.65802868,11.4937676 C8.65802868,10.6461621 8.81383851,9.84218339 9.0942962,9.0942962 C9.84218339,8.81383851 10.6523945,8.65802868 11.4937676,8.65802868 L11.5062324,8.65802868 C12.3538379,8.65802868 13.164049,8.81383851 13.9057038,9.0942962 C14.1861615,9.84218339 14.3419713,10.6523945 14.3419713,11.4937676 L14.3419713,11.5062324 Z M22.7183079,9.60535245 L16.0745766,9.60535245 L20.7675688,4.91236033 C20.3998576,4.39507169 19.9885196,3.90894502 19.5397873,3.4602127 L19.5397873,3.4602127 C19.091055,3.01148039 18.6049283,2.60014244 18.0876397,2.23243123 L13.3946475,6.92542335 L13.3946475,0.281692146 C12.7776406,0.17574146 12.1481689,0.125882314 11.5062324,0.125882314 L11.4937676,0.125882314 C10.8518311,0.125882314 10.216127,0.181973854 9.60535245,0.281692146 L9.60535245,6.91919096 L4.91236033,2.22619884 C4.39507169,2.59391004 3.90894502,3.005248 3.4602127,3.45398031 L3.4602127,3.45398031 C3.01148039,3.90271263 2.60014244,4.3888393 2.23243123,4.90612794 L6.92542335,9.59912006 L0.281692146,9.59912006 C0.281692146,9.59912006 0.125882314,10.8455987 0.125882314,11.4937676 L0.125882314,11.5 C0.125882314,12.1419365 0.181973854,12.7776406 0.281692146,13.3946475 L6.91919096,13.3946475 L2.22619884,18.0876397 C2.96162124,19.1222169 3.87155066,20.0321464 4.90612794,20.7675688 L9.59912006,16.0745766 L9.59912006,22.7183079 C10.216127,22.8242585 10.8455987,22.8741177 11.4875352,22.8741177 L11.5062324,22.8741177 C12.1481689,22.8741177 12.7776406,22.8180261 13.3946475,22.7183079 L13.3946475,16.0745766 L18.0876397,20.7675688 C18.6049283,20.3998576 19.091055,19.9885196 19.5397873,19.5397873 L19.5397873,19.5397873 C19.9885196,19.091055 20.3998576,18.6049283 20.7675688,18.0876397 L16.0745766,13.3946475 L22.7183079,13.3946475 C22.8242585,12.7776406 22.8741177,12.1481689 22.8741177,11.5062324 L22.8741177,11.4875352 C22.8741177,10.8455987 22.8180261,10.216127 22.7183079,9.60535245 Z" id="XMLID_2_"></path>
                </g>
            </g>
        </g>
    </g>
</svg>